<?xml version="1.0" encoding="utf-8"?>
<!-- Generator: Adobe Illustrator 26.0.0, SVG Export Plug-In . SVG Version: 6.00 Build 0)  -->
<svg version="1.1" id="Слой_1" xmlns="http://www.w3.org/2000/svg" xmlns:xlink="http://www.w3.org/1999/xlink" x="0px" y="0px"
	 viewBox="0 0 30 11" style="enable-background:new 0 0 30 11;" xml:space="preserve">
<style type="text/css">
	.st0{fill:#19AA1E;}
</style>
<g transform="translate(0.000000,207.000000) scale(0.100000,-0.100000)">
	<path class="st0" d="M51.67,2069.02c-23.72-3.51-41.43-19.56-46.6-42.08c-1.37-5.97-1.37-17.03,0-22.99
		c4.01-17.46,15.98-31.63,32.61-38.43c6.72-2.78,11.89-3.72,20.24-3.65c9.4,0,14.93,1.3,23.28,5.35
		c11.28,5.57,19.09,13.34,24.62,24.69c4.16,8.42,5.42,13.85,5.42,23.53c0,9.69-1.27,15.11-5.35,23.53
		c-7.23,14.68-19.99,24.94-35.65,28.78C66.03,2068.8,55.14,2069.49,51.67,2069.02z M72.21,2043.13c0-3.62,0.18-6.94,0.33-7.45
		c0.43-1.08,3.07-2.46,4.77-2.46c0.72,0,1.99,0.51,2.75,1.08c1.41,1.08,1.41,1.37,1.59,8.1c0.18,5.86,0.29,6.94,1.05,7.12
		c1.52,0.29,5.53-3.29,7.37-6.72c1.52-2.68,1.84-3.9,1.84-6.58c0-3.54-1.37-7.27-3.43-9.47c-1.19-1.27-1.19-1.7-1.48-20.35
		l-0.29-19.05l-1.63-2.1c-2.24-2.75-4.88-4.05-8.17-4.05c-3.51,0-6.72,1.84-8.42,4.81c-1.19,2.13-1.19,2.57-1.19,20.21v18
		l-1.41,1.92c-3.83,5.03-4.66,11.39-2.21,16.27c1.81,3.51,5.78,7.16,7.88,7.23C72.06,2049.64,72.21,2047.98,72.21,2043.13z
		 M58,2035.94v-3.83h-8.17c-5.86,0-8.28-0.22-8.71-0.65c-0.61-0.76-3.4-7.45-3.4-8.21c0-0.22,5.46-0.43,12.22-0.43
		s12.36-0.11,12.47-0.22c0.11-0.11,0.18-2.35,0.07-4.92l-0.18-4.7h-6.18c-6.8,0-8.21-0.51-7.88-2.78c0.18-1.3,0.22-1.3,7.12-1.48
		l6.94-0.18l0.18-4.92c0.11-2.75,0.07-5.1-0.07-5.21s-4.01-0.22-8.64-0.22h-8.39v-4.59c0-4.23-0.11-4.66-1.41-6.04
		c-1.37-1.37-1.74-1.41-7.16-1.41c-5.57,0-5.75,0.07-7.34,1.59c-1.52,1.52-1.59,1.81-1.59,6.62c0,4.88-0.07,5.03-1.7,6.69
		c-2.35,2.42-2.68,3.54-2.68,9.87c0,5.97,0.76,8.17,3.51,9.91c0.83,0.54,2.31,3.22,4.16,7.59c4.7,11.06,5.21,11.39,17.68,11.39H58
		V2035.94z"/>
	<path class="st0" d="M74.77,1993.35c-1.16-1.27-1.19-3.62-0.07-4.7c2.02-2.1,5.68-0.33,5.68,2.75
		C80.41,1993.97,76.55,1995.34,74.77,1993.35z"/>
	<path class="st0" d="M32.77,2014.64c-1.27-1.27-1.59-2.1-1.59-3.9c0-2.86,0.72-4.16,2.75-5.21c3.22-1.63,6.29-0.72,7.95,2.46
		c1.3,2.53,1.05,4.27-1.05,6.36C38.26,2016.89,35.12,2016.99,32.77,2014.64z"/>
	<path d="M165.55,2040.49c-0.54-0.18-1.59-0.65-2.31-1.08c-1.16-0.76-1.27-0.76-1.27,0.07c0,0.76-0.83,0.87-6.04,0.87h-6.04v-36.95
		v-36.95h6.04h6.04v11.28v11.28l1.52-0.98c1.16-0.83,2.53-1.05,6.25-1.05c5.64,0,7.05,0.76,9.18,4.99l1.37,2.68v19.16
		c0,18.98,0,19.16-1.27,21.73c-1.84,3.83-3.76,4.99-8.53,5.13C168.41,2040.75,166.13,2040.64,165.55,2040.49z M168.3,2013.78v-15.87
		l-2.35-0.18c-4.05-0.29-3.94-0.72-3.94,15.98c0,11.17,0.18,15.04,0.65,15.55c0.43,0.43,1.74,0.65,3.18,0.54l2.46-0.18
		C168.3,2029.61,168.3,2013.78,168.3,2013.78z"/>
	<path d="M195.88,2040.17c-5.64-1.59-8.06-5.13-8.53-12.44l-0.33-4.37h6.15h6.04v2.24c0,3.29,0.76,4.34,3.18,4.34
		c3.07,0,3.4-0.61,3.4-6.62v-5.35l-2.57,1.16c-2.02,0.87-3.29,1.05-6.36,0.83c-4.56-0.29-6.15-1.3-8.06-5.1
		c-1.3-2.53-1.37-3.18-1.37-11.42c0-8.24,0.07-8.93,1.37-11.42c2.13-4.23,3.54-4.99,9.18-4.99c3.72,0,5.1,0.22,6.29,1.05
		c1.3,0.87,1.48,0.87,1.48,0.11c0-0.76,0.83-0.87,6.07-0.87h6.04l-0.18,22.59c-0.18,21.84-0.22,22.59-1.3,24.73
		c-1.37,2.53-2.46,3.62-5.13,4.92C208.79,2040.82,199.5,2041.22,195.88,2040.17z M205.14,2008.46c0.98-0.98,0.87-9.4-0.11-10.23
		c-0.43-0.4-1.84-0.61-3.18-0.51l-2.35,0.18l-0.18,4.88c-0.11,2.68-0.07,5.21,0.11,5.64C199.82,2009.33,204.2,2009.4,205.14,2008.46
		z"/>
	<path d="M123.11,2013.78v-26.54h6.04h6.04v21.62v21.62h5.46h5.46v4.92v4.92h-11.5h-11.5V2013.78z"/>
	<path d="M224.41,2013.78v-26.54h6.04h6v10.95v10.95h3.29h3.29v-10.95v-10.95h5.71h5.75v26.54v26.54h-5.75h-5.75v-10.95v-10.95
		h-3.29h-3.25v10.95v10.95h-6.04h-6.04v-26.54H224.41z"/>
	<path d="M266.52,2038.72c0-3.29-2.24-40.27-2.46-40.96c-0.18-0.43-1.19-0.72-2.75-0.72h-2.46v-10.41v-10.34h6.04h6.04v5.46v5.46
		h8.5h8.5v-5.46v-5.46h6.04H300v10.41v10.41h-2.82h-2.75v21.62v21.62h-13.95h-13.95C266.52,2040.35,266.52,2038.72,266.52,2038.72z
		 M282.68,2013.78v-16.41l-3.72-0.18c-3.62-0.18-3.65-0.11-3.43,1.08c0.18,0.72,0.54,6.4,0.87,12.76c0.29,6.36,0.72,13.3,0.87,15.51
		l0.33,4.01l2.53-0.18l2.57-0.18C282.68,2030.19,282.68,2013.78,282.68,2013.78z"/>
</g>
</svg>
